# xmcd
#
# Track frame offsets:
#  150
#  12665
#  25540
#  40467
#  50507
#  61673
#  75840
#  86147
#  94708
#  113178
#
# Disc length: 1649 seconds
#
# Revision: 0
# Processed by: cddbd v1.5.1PL2 Copyright (c) Steve Scherf et al.
# Submitted via: Collectorz.com_Music_Collector 6.9
#
DISCID=70066f0a
DTITLE=johnny cash - Classic Country
DYEAR=1900
DGENRE=Country
TTITLE0=I walk the line
TTITLE1=Folsom Prison Blues
TTITLE2=There Ain't No Good Chain Gang (with Waylon Jennings)
TTITLE3=Ballard of a Teenage Queen
TTITLE4=Cry,Cry,Cry
TTITLE5=Oney
TTITLE6=The Ways of a Woman in Love
TTITLE7=Guess Things Happen That Way
TTITLE8=One Piece at a Time
TTITLE9=There You Go
EXTD=
EXTT0=
EXTT1=
EXTT2=
EXTT3=
EXTT4=
EXTT5=
EXTT6=
EXTT7=
EXTT8=
EXTT9=
PLAYORDER=
